#!OML:ASF F:\VICON\USERDATA\INSTALL\rory3\rory3.ASF
:FULLY-SPECIFIED
:DEGREES
2671
root -2.35065 19.2977 5.59954 -716.127 -138.909 710.75
lowerback 2.02595 1.47991 -7.90303
upperback -0.737986 1.70864 7.18095
thorax -2.39758 0.963859 12.1635
lowerneck -22.529 10.3226 -11.5254
upperneck 1.83662 15.331 10.3675
head 2.32207 7.95792 6.04614
rclavicle -4.94974e-014 -5.725e-014
rhumerus -50.0415 -4.28671 -26.0277
rradius 51.6015
rwrist -11.1154
rhand -22.5375 -2.39981
rfingers 7.12502
rthumb 3.88976 -32.3441
lclavicle -4.94974e-014 -5.725e-014
lhumerus 58.5443 -30.4417 13.6485
lradius 43.4298
lwrist 23.945
lhand 8.5365 20.3832
lfingers 7.12502
lthumb 33.737 47.225
rfemur -13.0853 -1.47431 6.97342
rtibia 41.7456
rfoot 9.83274 -13.0775
rtoes 17.9821
lfemur -10.3928 -12.7822 -20.1635
ltibia 29.6637
lfoot 16.2812 1.54909
ltoes -14.478
2672
root -2.35784 19.006 5.64883 -716.604 -139.031 711.046
lowerback 2.02951 1.26057 -8.00306
upperback -0.733036 1.41993 6.97685
thorax -2.31211 0.817112 12.0053
lowerneck -22.319 10.4283 -11.1393
upperneck 1.83868 15.3585 10.3632
head 2.31921 7.97332 5.97916
rclavicle -5.32743e-014 1.90833e-014
rhumerus -49.4274 -3.63332 -27.1575
rradius 52.063
rwrist -11.0159
rhand -22.6092 -1.85273
rfingers 7.12502
rthumb 3.82048 -31.7982
lclavicle -5.32743e-014 1.90833e-014
lhumerus 58.9779 -34.161 14.6533
lradius 44.1031
lwrist 23.932
lhand 8.63932 19.5501
lfingers 7.12502
lthumb 33.8347 46.3704
rfemur -12.9444 -2.0044 7.65406
rtibia 42.9675
rfoot 6.16635 -11.7994
rtoes 10.5571
lfemur -10.7891 -12.6834 -19.7561
ltibia 30.8425
lfoot 16.2294 0.129835
ltoes -14.1202
2673
root -2.3645 18.6961 5.70513 -717.048 -139.223 711.189
lowerback 2.11112 1.09931 -8.18631
upperback -0.662178 1.20559 6.72587
thorax -2.22277 0.707412 11.8396
lowerneck -22.5251 10.4818 -10.9453
upperneck 2.33681 15.3693 10.7315
head 2.4878 8.00986 6.10279
rclavicle 3.27995e-014 7.63333e-014
rhumerus -48.8646 -2.94194 -28.2871
rradius 52.6124
rwrist -11.0332
rhand -22.9504 0.152738
rfingers 7.12502
rthumb 3.49099 -29.7984
lclavicle 3.27995e-014 7.63333e-014
lhumerus 59.3186 -37.7513 15.7623
lradius 44.8633
lwrist 23.8462
lhand 8.91072 18.8023
lfingers 7.12502
lthumb 34.0925 45.5654
rfemur -12.717 -2.69393 8.18115
rtibia 44.6484
rfoot 0.778524 -10.5348
rtoes 0.767293
lfemur -11.0837 -12.591 -19.5019
ltibia 32.1676
lfoot 12.0643 -0.82021
ltoes -26.1349
2674
root -2.36751 18.3849 5.76623 -717.603 -139.563 711.434
lowerback 2.27233 1.04909 -8.23883
upperback -0.467788 1.135 6.52127
thorax -2.08476 0.658478 11.6397
lowerneck -22.5282 10.4662 -11.0417
upperneck 2.04221 15.3523 10.9525
head 2.37656 8.01303 6.16934
rclavicle 2.38542e-014 -5.40694e-014
rhumerus -48.2381 -2.40711 -29.3329
rradius 53.2489
rwrist -11.1193
rhand -23.0378 1.31506
rfingers 7.12502
rthumb 3.40663 -28.6375
lclavicle 2.38542e-014 -5.40694e-014
lhumerus 59.2737 -41.0033 17.5405
lradius 45.6904
lwrist 23.8106
lhand 9.26229 18.4439
lfingers 7.12502
lthumb 34.4263 45.132
rfemur -12.6164 -3.11305 8.72695
rtibia 46.6329
rfoot -4.88652 -9.33253
rtoes -6.11128
lfemur -11.1966 -12.3859 -19.1937
ltibia 33.7798
lfoot 8.15815 -2.93566
ltoes -31.3759
2675
root -2.36246 18.0742 5.83411 -718.099 -140.072 711.571
lowerback 2.5802 1.04141 -8.37549
upperback -0.256999 1.10994 6.31414
thorax -2.02674 0.637692 11.4859
lowerneck -22.3046 10.5403 -11.0778
upperneck 1.451 15.445 10.8757
head 2.15574 8.04703 6.11009
rclavicle -5.54609e-014 -1.27222e-013
rhumerus -47.3362 -1.92484 -30.4281
rradius 53.8182
rwrist -11.0784
rhand -22.9221 1.06027
rfingers 7.12502
rthumb 3.5183 -28.8904
lclavicle -5.54609e-014 -1.27222e-013
lhumerus 58.7359 -44.0885 19.9771
lradius 46.3309
lwrist 23.6746
lhand 9.49912 17.8828
lfingers 7.12502
lthumb 34.6511 44.5196
rfemur -12.7293 -2.84132 9.13121
rtibia 48.7091
rfoot -10.689 -7.80944
rtoes -6.3515
lfemur -11.1783 -11.8938 -18.9678
ltibia 35.7151
lfoot 3.21128 -4.48458
ltoes -35.9524
2676
root -2.35123 17.7744 5.90392 -718.824 -140.732 711.94
lowerback 3.03038 1.078 -8.43041
upperback 0.0296672 1.12826 6.25327
thorax -1.9826 0.631376 11.4458
lowerneck -22.0893 10.6062 -11.215
upperneck 0.835417 15.5605 10.6659
head 1.92827 8.0835 6.0244
rclavicle -3.67752e-014 3.18055e-015
rhumerus -45.96 -1.60724 -31.4574
rradius 54.1145
rwrist -10.9201
rhand -22.8208 0.943233
rfingers 7.12502
rthumb 3.61611 -29.0058
lclavicle -3.67752e-014 3.18055e-015
lhumerus 57.7223 -46.9556 23.0202
lradius 46.8065
lwrist 23.3907
lhand 9.15325 16.6973
lfingers 7.12502
lthumb 34.3228 43.4089
rfemur -12.9374 -2.06306 9.6654
rtibia 50.6983
rfoot -15.2097 -6.39471
rtoes -5.74966
lfemur -11.0701 -10.8072 -18.5454
ltibia 37.9084
lfoot -2.10363 -4.98068
ltoes -36.3368
2677
root -2.34811 17.5055 5.96163 -719.301 -141.394 712.123
lowerback 3.31955 1.07732 -8.57054
upperback 0.359141 1.10341 6.14542
thorax -1.79149 0.593485 11.4078
lowerneck -22.3382 10.5403 -11.5513
upperneck 0.326821 15.5588 10.6461
head 1.78381 8.07529 6.05816
rclavicle 1.27222e-014 7.31528e-014
rhumerus -44.5774 -1.41534 -32.4916
rradius 54.4579
rwrist -10.6249
rhand -22.9431 1.22265
rfingers 7.12502
rthumb 3.49806 -28.7284
lclavicle 1.27222e-014 7.31528e-014
lhumerus 56.0705 -49.5217 26.5318
lradius 47.2987
lwrist 23.3791
lhand 8.97656 15.5879
lfingers 7.12502
lthumb 34.155 42.3371
rfemur -13.4377 -1.17473 9.88457
rtibia 52.5667
rfoot -18.997 -5.80087
rtoes -8.05818
lfemur -11.3143 -9.5369 -18.2879
ltibia 40.2787
lfoot -6.92575 -5.07283
ltoes -35.4608
2678
root -2.35184 17.2579 6.00915 -719.725 -142.014 712.215
lowerback 3.66314 1.07126 -8.62554
upperback 0.605343 1.07574 5.8569
thorax -1.71229 0.566351 11.1141
lowerneck -21.3624 10.7838 -11.0093
upperneck -0.915809 15.6966 10.1183
head 1.33173 8.0931 5.70796
rclavicle 2.68359e-015 -5.725e-014
rhumerus -43.6402 -1.26225 -33.7269
rradius 55.0287
rwrist -10.0429
rhand -22.9976 1.80522
rfingers 7.12502
rthumb 3.44542 -28.1467
lclavicle 2.68359e-015 -5.725e-014
lhumerus 53.6835 -52.0878 30.6695
lradius 47.5376
lwrist 23.0154
lhand 10.2998 15.6961
lfingers 7.12502
lthumb 35.4107 42.1553
rfemur -14.0467 -0.461155 9.86683
rtibia 54.3512
rfoot -21.7546 -5.58372
rtoes -12.9565
lfemur -11.9746 -8.2095 -18.1228
ltibia 42.7391
lfoot -11.0422 -5.71895
ltoes -35.8101
2679
root -2.35606 17.0228 6.06404 -720.452 -142.548 712.602
lowerback 4.351 1.05839 -8.3028
upperback 0.759721 1.02567 5.57955
thorax -1.91267 0.543178 10.6072
lowerneck -19.7592 11.1475 -10.4495
upperneck -2.72134 15.9663 9.46361
head 0.619193 8.15896 5.25848
rclavicle -3.46382e-014 1.43125e-014
rhumerus -42.9292 -1.18319 -34.9958
rradius 55.7183
rwrist -9.14391
rhand -22.9122 2.47357
rfingers 7.12502
rthumb 3.52792 -27.477
lclavicle -3.46382e-014 1.43125e-014
lhumerus 50.0917 -54.4841 36.0614
lradius 47.4943
lwrist 22.2362
lhand 11.4579 15.826
lfingers 7.12502
lthumb 36.5077 42.0161
rfemur -14.5317 0.113936 10.0602
rtibia 56.1298
rfoot -24.141 -5.46199
rtoes -17.3273
lfemur -12.7893 -6.94931 -17.7622
ltibia 45.312
lfoot -14.287 -6.53576
ltoes -34.6816
2680
root -2.35846 16.8103 6.1274 -721.436 -143.025 713.186
lowerback 5.37637 1.00406 -7.84239
upperback 0.996928 0.897369 5.47299
thorax -2.2 0.474102 10.2186
lowerneck -18.9561 11.3366 -10.0451
upperneck -4.00211 16.079 8.75907
head 0.189451 8.15521 4.8931
rclavicle 8.05078e-015 1.08139e-013
rhumerus -41.8969 -1.31309 -36.1215
rradius 56.4315
rwrist -8.02317
rhand -22.5627 2.88199
rfingers 7.12502
rthumb 3.86541 -27.0627
lclavicle 8.05078e-015 1.08139e-013
lhumerus 45.0918 -56.1523 43.0137
lradius 47.1777
lwrist 21.245
lhand 10.9968 15.466
lfingers 7.12502
lthumb 36.0712 41.765
rfemur -14.8392 1.05169 10.5454
rtibia 57.942
rfoot -26.5803 -5.86081
rtoes -19.1397
lfemur -13.5051 -5.59906 -17.2884
ltibia 48.0501
lfoot -16.6608 -6.70233
ltoes -32.6205
2681
root -2.35979 16.6092 6.18928 -722.486 -143.496 713.822
lowerback 6.3917 0.963172 -7.38255
upperback 1.36348 0.786599 5.44615
thorax -2.35294 0.396756 9.92306
lowerneck -18.6438 11.344 -9.76644
upperneck -5.04434 15.987 8.16954
head -0.096212 8.05942 4.62275
rclavicle -6.2816e-014 1.74931e-014
rhumerus -40.6664 -1.74468 -37.1954
rradius 57.0286
rwrist -6.74196
rhand -22.3034 2.92689
rfingers 7.12502
rthumb 4.11579 -27.0131
lclavicle -6.2816e-014 1.74931e-014
lhumerus 39.0769 -56.9648 51.1704
lradius 46.5285
lwrist 19.8946
lhand 9.92255 14.8134
lfingers 7.12502
lthumb 35.0529 41.3571
rfemur -15.184 1.48959 11.0312
rtibia 59.8141
rfoot -28.6343 -5.93569
rtoes -18.7749
lfemur -14.2306 -4.33619 -16.7687
ltibia 50.974
lfoot -18.6839 -6.34809
ltoes -31.2842
2682
root -2.36096 16.4188 6.24155 -723.153 -143.981 714.233
lowerback 6.92785 0.783255 -7.35069
upperback 1.83033 0.485398 5.54535
thorax -2.09541 0.1985 10.042
lowerneck -18.4352 11.409 -9.77
upperneck -6.22806 16.0069 7.62217
head -0.447051 8.02075 4.40696
rclavicle 3.18366e-014 -3.97569e-014
rhumerus -39.1044 -2.02773 -38.3152
rradius 57.651
rwrist -5.52654
rhand -22.3343 3.03756
rfingers 7.12502
rthumb 4.08591 -26.903
lclavicle 3.18366e-014 -3.97569e-014
lhumerus 32.0617 -56.531 60.1336
lradius 45.7664
lwrist 18.519
lhand 8.3441 14.1766
lfingers 7.12502
lthumb 33.5541 41.0582
rfemur -15.9471 1.12593 11.2013
rtibia 61.7311
rfoot -30.1075 -5.69875
rtoes -18.9826
lfemur -15.2969 -3.06333 -16.3751
ltibia 53.9377
lfoot -20.5535 -6.45362
ltoes -31.0746
2683
root -2.3635 16.2493 6.29299 -723.287 -144.431 714.532
lowerback 6.95266 0.39194 -7.53799
upperback 2.2785 -0.090963 5.75702
thorax -1.50528 -0.158493 10.4373
lowerneck -19.0513 11.4495 -10.4565
upperneck -6.90652 16.1516 7.60897
head -0.63523 8.08046 4.51194
rclavicle 1.70458e-014 -4.77083e-015
rhumerus -37.07 -2.2314 -39.5777
rradius 58.1275
rwrist -4.41621
rhand -22.5931 3.26703
rfingers 7.12502
rthumb 3.83609 -26.6782
lclavicle 1.70458e-014 -4.77083e-015
lhumerus 24.6701 -54.5291 69.2529
lradius 44.9772
lwrist 17.1544
lhand 6.84474 14.0468
lfingers 7.12502
lthumb 32.1279 41.227
rfemur -17.2491 0.590714 11.3184
rtibia 63.5878
rfoot -31.3133 -5.81586
rtoes -20.6623
lfemur -16.8624 -1.93316 -16.0553
ltibia 56.7292
lfoot -22.0372 -6.75209
ltoes -30.8895
2684
root -2.36795 16.0954 6.34844 -723.284 -144.633 714.933
lowerback 6.8698 -0.00415177 -7.4859
upperback 2.57272 -0.641141 5.80319
thorax -1.0202 -0.485853 10.4954
lowerneck -19.857 11.3193 -10.8018
upperneck -7.1456 16.0347 7.9209
head -0.635475 8.01921 4.69547
rclavicle 3.06128e-014 3.49861e-014
rhumerus -35.6119 -2.86585 -41.1043
rradius 58.4125
rwrist -3.34844
rhand -23.193 3.81949
rfingers 7.12502
rthumb 3.25675 -26.1354
lclavicle 3.06128e-014 3.49861e-014
lhumerus 17.9207 -52.111 77.317
lradius 44.317
lwrist 16.3482
lhand 4.74354 14.8461
lfingers 7.12502
lthumb 30.1253 42.4106
rfemur -18.6153 -0.0707077 11.599
rtibia 65.2847
rfoot -32.3955 -6.192
rtoes -21.3273
lfemur -18.5421 -1.06972 -15.6291
ltibia 59.1691
lfoot -23.1927 -7.05032
ltoes -29.906
